<?xml version="1.0" encoding="utf-8" standalone="no"?>
<!DOCTYPE svg PUBLIC "-//W3C//DTD SVG 1.1//EN"
  "http://www.w3.org/Graphics/SVG/1.1/DTD/svg11.dtd">
<svg xmlns:xlink="http://www.w3.org/1999/xlink" width="1144.743438pt" height="640.2675pt" viewBox="0 0 1144.743438 640.2675" xmlns="http://www.w3.org/2000/svg" version="1.1">
 <metadata>
  <rdf:RDF xmlns:dc="http://purl.org/dc/elements/1.1/" xmlns:cc="http://creativecommons.org/ns#" xmlns:rdf="http://www.w3.org/1999/02/22-rdf-syntax-ns#">
   <cc:Work>
    <dc:type rdf:resource="http://purl.org/dc/dcmitype/StillImage"/>
    <dc:date>2023-10-25T19:52:52.941776</dc:date>
    <dc:format>image/svg+xml</dc:format>
    <dc:creator>
     <cc:Agent>
      <dc:title>Matplotlib v3.8.0, https://matplotlib.org/</dc:title>
     </cc:Agent>
    </dc:creator>
   </cc:Work>
  </rdf:RDF>
 </metadata>
 <defs>
  <style type="text/css">*{stroke-linejoin: round; stroke-linecap: butt}</style>
 </defs>
 <g id="figure_1">
  <g id="patch_1">
   <path d="M 0 640.2675 
L 1144.743438 640.2675 
L 1144.743438 0 
L 0 0 
L 0 640.2675 
z
" style="fill: none"/>
  </g>
  <g id="axes_1">
   <g id="patch_2">
    <path d="M 57.199375 598.84 
L 1091.889375 598.84 
L 1091.889375 7.2 
L 57.199375 7.2 
L 57.199375 598.84 
z
" style="fill: none"/>
   </g>
   <g id="patch_3">
    <path d="M 104.230739 598.84 
L 123.427214 598.84 
L 123.427214 598.84 
L 104.230739 598.84 
z
" clip-path="url(#p0bbb4e0af6)" style="fill: #d3d3d3"/>
   </g>
   <g id="patch_4">
    <path d="M 123.427214 598.84 
L 142.623689 598.84 
L 142.623689 598.686131 
L 123.427214 598.686131 
z
" clip-path="url(#p0bbb4e0af6)" style="fill: #d3d3d3"/>
   </g>
   <g id="patch_5">
    <path d="M 142.623689 598.84 
L 161.820163 598.84 
L 161.820163 35.373333 
L 142.623689 35.373333 
z
" clip-path="url(#p0bbb4e0af6)" style="fill: #d3d3d3"/>
   </g>
   <g id="patch_6">
    <path d="M 161.820163 598.84 
L 181.016638 598.84 
L 181.016638 378.038616 
L 161.820163 378.038616 
z
" clip-path="url(#p0bbb4e0af6)" style="fill: #d3d3d3"/>
   </g>
   <g id="patch_7">
    <path d="M 181.016638 598.84 
L 200.213113 598.84 
L 200.213113 525.290828 
L 181.016638 525.290828 
z
" clip-path="url(#p0bbb4e0af6)" style="fill: #d3d3d3"/>
   </g>
   <g id="patch_8">
    <path d="M 200.213113 598.84 
L 219.409588 598.84 
L 219.409588 552.987169 
L 200.213113 552.987169 
z
" clip-path="url(#p0bbb4e0af6)" style="fill: #d3d3d3"/>
   </g>
   <g id="patch_9">
    <path d="M 219.409588 598.84 
L 238.606063 598.84 
L 238.606063 564.373443 
L 219.409588 564.373443 
z
" clip-path="url(#p0bbb4e0af6)" style="fill: #d3d3d3"/>
   </g>
   <g id="patch_10">
    <path d="M 238.606063 598.84 
L 257.802538 598.84 
L 257.802538 562.219283 
L 238.606063 562.219283 
z
" clip-path="url(#p0bbb4e0af6)" style="fill: #d3d3d3"/>
   </g>
   <g id="patch_11">
    <path d="M 257.802538 598.84 
L 276.999013 598.84 
L 276.999013 562.988626 
L 257.802538 562.988626 
z
" clip-path="url(#p0bbb4e0af6)" style="fill: #d3d3d3"/>
   </g>
   <g id="patch_12">
    <path d="M 276.999013 598.84 
L 296.195488 598.84 
L 296.195488 568.374025 
L 276.999013 568.374025 
z
" clip-path="url(#p0bbb4e0af6)" style="fill: #d3d3d3"/>
   </g>
   <g id="patch_13">
    <path d="M 296.195488 598.84 
L 315.391963 598.84 
L 315.391963 575.29811 
L 296.195488 575.29811 
z
" clip-path="url(#p0bbb4e0af6)" style="fill: #d3d3d3"/>
   </g>
   <g id="patch_14">
    <path d="M 315.391963 598.84 
L 334.588438 598.84 
L 334.588438 571.143659 
L 315.391963 571.143659 
z
" clip-path="url(#p0bbb4e0af6)" style="fill: #d3d3d3"/>
   </g>
   <g id="patch_15">
    <path d="M 334.588438 598.84 
L 353.784913 598.84 
L 353.784913 568.835631 
L 334.588438 568.835631 
z
" clip-path="url(#p0bbb4e0af6)" style="fill: #d3d3d3"/>
   </g>
   <g id="patch_16">
    <path d="M 353.784913 598.84 
L 372.981388 598.84 
L 372.981388 571.605265 
L 353.784913 571.605265 
z
" clip-path="url(#p0bbb4e0af6)" style="fill: #d3d3d3"/>
   </g>
   <g id="patch_17">
    <path d="M 372.981388 598.84 
L 392.177863 598.84 
L 392.177863 564.68118 
L 372.981388 564.68118 
z
" clip-path="url(#p0bbb4e0af6)" style="fill: #d3d3d3"/>
   </g>
   <g id="patch_18">
    <path d="M 392.177863 598.84 
L 411.374338 598.84 
L 411.374338 564.835048 
L 392.177863 564.835048 
z
" clip-path="url(#p0bbb4e0af6)" style="fill: #d3d3d3"/>
   </g>
   <g id="patch_19">
    <path d="M 411.374338 598.84 
L 430.570813 598.84 
L 430.570813 562.988626 
L 411.374338 562.988626 
z
" clip-path="url(#p0bbb4e0af6)" style="fill: #d3d3d3"/>
   </g>
   <g id="patch_20">
    <path d="M 430.570813 598.84 
L 449.767288 598.84 
L 449.767288 558.988043 
L 430.570813 558.988043 
z
" clip-path="url(#p0bbb4e0af6)" style="fill: #d3d3d3"/>
   </g>
   <g id="patch_21">
    <path d="M 449.767288 598.84 
L 468.963763 598.84 
L 468.963763 555.910672 
L 449.767288 555.910672 
z
" clip-path="url(#p0bbb4e0af6)" style="fill: #d3d3d3"/>
   </g>
   <g id="patch_22">
    <path d="M 468.963763 598.84 
L 488.160238 598.84 
L 488.160238 555.295198 
L 468.963763 555.295198 
z
" clip-path="url(#p0bbb4e0af6)" style="fill: #d3d3d3"/>
   </g>
   <g id="patch_23">
    <path d="M 488.160238 598.84 
L 507.356713 598.84 
L 507.356713 552.987169 
L 488.160238 552.987169 
z
" clip-path="url(#p0bbb4e0af6)" style="fill: #d3d3d3"/>
   </g>
   <g id="patch_24">
    <path d="M 507.356713 598.84 
L 526.553188 598.84 
L 526.553188 548.217244 
L 507.356713 548.217244 
z
" clip-path="url(#p0bbb4e0af6)" style="fill: #d3d3d3"/>
   </g>
   <g id="patch_25">
    <path d="M 526.553188 598.84 
L 545.749663 598.84 
L 545.749663 547.140164 
L 526.553188 547.140164 
z
" clip-path="url(#p0bbb4e0af6)" style="fill: #d3d3d3"/>
   </g>
   <g id="patch_26">
    <path d="M 545.749663 598.84 
L 564.946138 598.84 
L 564.946138 552.217826 
L 545.749663 552.217826 
z
" clip-path="url(#p0bbb4e0af6)" style="fill: #d3d3d3"/>
   </g>
   <g id="patch_27">
    <path d="M 564.946138 598.84 
L 584.142612 598.84 
L 584.142612 554.525855 
L 564.946138 554.525855 
z
" clip-path="url(#p0bbb4e0af6)" style="fill: #d3d3d3"/>
   </g>
   <g id="patch_28">
    <path d="M 584.142612 598.84 
L 603.339087 598.84 
L 603.339087 560.988334 
L 584.142612 560.988334 
z
" clip-path="url(#p0bbb4e0af6)" style="fill: #d3d3d3"/>
   </g>
   <g id="patch_29">
    <path d="M 603.339087 598.84 
L 622.535562 598.84 
L 622.535562 570.066579 
L 603.339087 570.066579 
z
" clip-path="url(#p0bbb4e0af6)" style="fill: #d3d3d3"/>
   </g>
   <g id="patch_30">
    <path d="M 622.535562 598.84 
L 641.732037 598.84 
L 641.732037 580.375773 
L 622.535562 580.375773 
z
" clip-path="url(#p0bbb4e0af6)" style="fill: #d3d3d3"/>
   </g>
   <g id="patch_31">
    <path d="M 641.732037 598.84 
L 660.928512 598.84 
L 660.928512 582.991538 
L 641.732037 582.991538 
z
" clip-path="url(#p0bbb4e0af6)" style="fill: #d3d3d3"/>
   </g>
   <g id="patch_32">
    <path d="M 660.928512 598.84 
L 680.124987 598.84 
L 680.124987 582.376064 
L 660.928512 582.376064 
z
" clip-path="url(#p0bbb4e0af6)" style="fill: #d3d3d3"/>
   </g>
   <g id="patch_33">
    <path d="M 680.124987 598.84 
L 699.321462 598.84 
L 699.321462 589.915624 
L 680.124987 589.915624 
z
" clip-path="url(#p0bbb4e0af6)" style="fill: #d3d3d3"/>
   </g>
   <g id="patch_34">
    <path d="M 699.321462 598.84 
L 718.517937 598.84 
L 718.517937 591.762046 
L 699.321462 591.762046 
z
" clip-path="url(#p0bbb4e0af6)" style="fill: #d3d3d3"/>
   </g>
   <g id="patch_35">
    <path d="M 718.517937 598.84 
L 737.714412 598.84 
L 737.714412 593.146863 
L 718.517937 593.146863 
z
" clip-path="url(#p0bbb4e0af6)" style="fill: #d3d3d3"/>
   </g>
   <g id="patch_36">
    <path d="M 737.714412 598.84 
L 756.910887 598.84 
L 756.910887 592.531389 
L 737.714412 592.531389 
z
" clip-path="url(#p0bbb4e0af6)" style="fill: #d3d3d3"/>
   </g>
   <g id="patch_37">
    <path d="M 756.910887 598.84 
L 776.107362 598.84 
L 776.107362 595.147155 
L 756.910887 595.147155 
z
" clip-path="url(#p0bbb4e0af6)" style="fill: #d3d3d3"/>
   </g>
   <g id="patch_38">
    <path d="M 776.107362 598.84 
L 795.303837 598.84 
L 795.303837 596.378103 
L 776.107362 596.378103 
z
" clip-path="url(#p0bbb4e0af6)" style="fill: #d3d3d3"/>
   </g>
   <g id="patch_39">
    <path d="M 795.303837 598.84 
L 814.500312 598.84 
L 814.500312 594.993286 
L 795.303837 594.993286 
z
" clip-path="url(#p0bbb4e0af6)" style="fill: #d3d3d3"/>
   </g>
   <g id="patch_40">
    <path d="M 814.500312 598.84 
L 833.696787 598.84 
L 833.696787 597.609052 
L 814.500312 597.609052 
z
" clip-path="url(#p0bbb4e0af6)" style="fill: #d3d3d3"/>
   </g>
   <g id="patch_41">
    <path d="M 833.696787 598.84 
L 852.893262 598.84 
L 852.893262 598.070657 
L 833.696787 598.070657 
z
" clip-path="url(#p0bbb4e0af6)" style="fill: #d3d3d3"/>
   </g>
   <g id="patch_42">
    <path d="M 852.893262 598.84 
L 872.089737 598.84 
L 872.089737 597.76292 
L 852.893262 597.76292 
z
" clip-path="url(#p0bbb4e0af6)" style="fill: #d3d3d3"/>
   </g>
   <g id="patch_43">
    <path d="M 872.089737 598.84 
L 891.286212 598.84 
L 891.286212 598.378394 
L 872.089737 598.378394 
z
" clip-path="url(#p0bbb4e0af6)" style="fill: #d3d3d3"/>
   </g>
   <g id="patch_44">
    <path d="M 891.286212 598.84 
L 910.482687 598.84 
L 910.482687 598.686131 
L 891.286212 598.686131 
z
" clip-path="url(#p0bbb4e0af6)" style="fill: #d3d3d3"/>
   </g>
   <g id="patch_45">
    <path d="M 910.482687 598.84 
L 929.679162 598.84 
L 929.679162 598.532263 
L 910.482687 598.532263 
z
" clip-path="url(#p0bbb4e0af6)" style="fill: #d3d3d3"/>
   </g>
   <g id="patch_46">
    <path d="M 929.679162 598.84 
L 948.875637 598.84 
L 948.875637 598.84 
L 929.679162 598.84 
z
" clip-path="url(#p0bbb4e0af6)" style="fill: #d3d3d3"/>
   </g>
   <g id="patch_47">
    <path d="M 948.875637 598.84 
L 968.072112 598.84 
L 968.072112 598.84 
L 948.875637 598.84 
z
" clip-path="url(#p0bbb4e0af6)" style="fill: #d3d3d3"/>
   </g>
   <g id="patch_48">
    <path d="M 968.072112 598.84 
L 987.268587 598.84 
L 987.268587 598.686131 
L 968.072112 598.686131 
z
" clip-path="url(#p0bbb4e0af6)" style="fill: #d3d3d3"/>
   </g>
   <g id="patch_49">
    <path d="M 987.268587 598.84 
L 1006.465061 598.84 
L 1006.465061 598.532263 
L 987.268587 598.532263 
z
" clip-path="url(#p0bbb4e0af6)" style="fill: #d3d3d3"/>
   </g>
   <g id="patch_50">
    <path d="M 1006.465061 598.84 
L 1025.661536 598.84 
L 1025.661536 598.532263 
L 1006.465061 598.532263 
z
" clip-path="url(#p0bbb4e0af6)" style="fill: #d3d3d3"/>
   </g>
   <g id="patch_51">
    <path d="M 1025.661536 598.84 
L 1044.858011 598.84 
L 1044.858011 598.686131 
L 1025.661536 598.686131 
z
" clip-path="url(#p0bbb4e0af6)" style="fill: #d3d3d3"/>
   </g>
   <g id="matplotlib.axis_1">
    <g id="xtick_1">
     <g id="line2d_1">
      <defs>
       <path id="m8014295eaf" d="M 0 0 
L 0 3.5 
" style="stroke: #000000; stroke-width: 0.8"/>
      </defs>
      <g>
       <use xlink:href="#m8014295eaf" x="152.221926" y="598.84" style="stroke: #000000; stroke-width: 0.8"/>
      </g>
     </g>
     <g id="text_1">
      <!-- 0-5m -->
      <g transform="translate(139.185207 613.438438) scale(0.1 -0.1)">
       <defs>
        <path id="DejaVuSans-30" d="M 2034 4250 
Q 1547 4250 1301 3770 
Q 1056 3291 1056 2328 
Q 1056 1369 1301 889 
Q 1547 409 2034 409 
Q 2525 409 2770 889 
Q 3016 1369 3016 2328 
Q 3016 3291 2770 3770 
Q 2525 4250 2034 4250 
z
M 2034 4750 
Q 2819 4750 3233 4129 
Q 3647 3509 3647 2328 
Q 3647 1150 3233 529 
Q 2819 -91 2034 -91 
Q 1250 -91 836 529 
Q 422 1150 422 2328 
Q 422 3509 836 4129 
Q 1250 4750 2034 4750 
z
" transform="scale(0.015625)"/>
        <path id="DejaVuSans-2d" d="M 313 2009 
L 1997 2009 
L 1997 1497 
L 313 1497 
L 313 2009 
z
" transform="scale(0.015625)"/>
        <path id="DejaVuSans-35" d="M 691 4666 
L 3169 4666 
L 3169 4134 
L 1269 4134 
L 1269 2991 
Q 1406 3038 1543 3061 
Q 1681 3084 1819 3084 
Q 2600 3084 3056 2656 
Q 3513 2228 3513 1497 
Q 3513 744 3044 326 
Q 2575 -91 1722 -91 
Q 1428 -91 1123 -41 
Q 819 9 494 109 
L 494 744 
Q 775 591 1075 516 
Q 1375 441 1709 441 
Q 2250 441 2565 725 
Q 2881 1009 2881 1497 
Q 2881 1984 2565 2268 
Q 2250 2553 1709 2553 
Q 1456 2553 1204 2497 
Q 953 2441 691 2322 
L 691 4666 
z
" transform="scale(0.015625)"/>
        <path id="DejaVuSans-6d" d="M 3328 2828 
Q 3544 3216 3844 3400 
Q 4144 3584 4550 3584 
Q 5097 3584 5394 3201 
Q 5691 2819 5691 2113 
L 5691 0 
L 5113 0 
L 5113 2094 
Q 5113 2597 4934 2840 
Q 4756 3084 4391 3084 
Q 3944 3084 3684 2787 
Q 3425 2491 3425 1978 
L 3425 0 
L 2847 0 
L 2847 2094 
Q 2847 2600 2669 2842 
Q 2491 3084 2119 3084 
Q 1678 3084 1418 2786 
Q 1159 2488 1159 1978 
L 1159 0 
L 581 0 
L 581 3500 
L 1159 3500 
L 1159 2956 
Q 1356 3278 1631 3431 
Q 1906 3584 2284 3584 
Q 2666 3584 2933 3390 
Q 3200 3197 3328 2828 
z
" transform="scale(0.015625)"/>
       </defs>
       <use xlink:href="#DejaVuSans-30"/>
       <use xlink:href="#DejaVuSans-2d" x="63.623047"/>
       <use xlink:href="#DejaVuSans-35" x="99.707031"/>
       <use xlink:href="#DejaVuSans-6d" x="163.330078"/>
      </g>
     </g>
    </g>
    <g id="xtick_2">
     <g id="line2d_2">
      <g>
       <use xlink:href="#m8014295eaf" x="248.204301" y="598.84" style="stroke: #000000; stroke-width: 0.8"/>
      </g>
     </g>
     <g id="text_2">
      <!-- 5-10m -->
      <g transform="translate(231.986332 613.438438) scale(0.1 -0.1)">
       <defs>
        <path id="DejaVuSans-31" d="M 794 531 
L 1825 531 
L 1825 4091 
L 703 3866 
L 703 4441 
L 1819 4666 
L 2450 4666 
L 2450 531 
L 3481 531 
L 3481 0 
L 794 0 
L 794 531 
z
" transform="scale(0.015625)"/>
       </defs>
       <use xlink:href="#DejaVuSans-35"/>
       <use xlink:href="#DejaVuSans-2d" x="63.623047"/>
       <use xlink:href="#DejaVuSans-31" x="99.707031"/>
       <use xlink:href="#DejaVuSans-30" x="163.330078"/>
       <use xlink:href="#DejaVuSans-6d" x="226.953125"/>
      </g>
     </g>
    </g>
    <g id="xtick_3">
     <g id="line2d_3">
      <g>
       <use xlink:href="#m8014295eaf" x="344.186676" y="598.84" style="stroke: #000000; stroke-width: 0.8"/>
      </g>
     </g>
     <g id="text_3">
      <!-- 10-15m -->
      <g transform="translate(324.787457 613.438438) scale(0.1 -0.1)">
       <use xlink:href="#DejaVuSans-31"/>
       <use xlink:href="#DejaVuSans-30" x="63.623047"/>
       <use xlink:href="#DejaVuSans-2d" x="127.246094"/>
       <use xlink:href="#DejaVuSans-31" x="163.330078"/>
       <use xlink:href="#DejaVuSans-35" x="226.953125"/>
       <use xlink:href="#DejaVuSans-6d" x="290.576172"/>
      </g>
     </g>
    </g>
    <g id="xtick_4">
     <g id="line2d_4">
      <g>
       <use xlink:href="#m8014295eaf" x="440.16905" y="598.84" style="stroke: #000000; stroke-width: 0.8"/>
      </g>
     </g>
     <g id="text_4">
      <!-- 15-20m -->
      <g transform="translate(420.769832 613.438438) scale(0.1 -0.1)">
       <defs>
        <path id="DejaVuSans-32" d="M 1228 531 
L 3431 531 
L 3431 0 
L 469 0 
L 469 531 
Q 828 903 1448 1529 
Q 2069 2156 2228 2338 
Q 2531 2678 2651 2914 
Q 2772 3150 2772 3378 
Q 2772 3750 2511 3984 
Q 2250 4219 1831 4219 
Q 1534 4219 1204 4116 
Q 875 4013 500 3803 
L 500 4441 
Q 881 4594 1212 4672 
Q 1544 4750 1819 4750 
Q 2544 4750 2975 4387 
Q 3406 4025 3406 3419 
Q 3406 3131 3298 2873 
Q 3191 2616 2906 2266 
Q 2828 2175 2409 1742 
Q 1991 1309 1228 531 
z
" transform="scale(0.015625)"/>
       </defs>
       <use xlink:href="#DejaVuSans-31"/>
       <use xlink:href="#DejaVuSans-35" x="63.623047"/>
       <use xlink:href="#DejaVuSans-2d" x="127.246094"/>
       <use xlink:href="#DejaVuSans-32" x="163.330078"/>
       <use xlink:href="#DejaVuSans-30" x="226.953125"/>
       <use xlink:href="#DejaVuSans-6d" x="290.576172"/>
      </g>
     </g>
    </g>
    <g id="xtick_5">
     <g id="line2d_5">
      <g>
       <use xlink:href="#m8014295eaf" x="536.151425" y="598.84" style="stroke: #000000; stroke-width: 0.8"/>
      </g>
     </g>
     <g id="text_5">
      <!-- 20-25m -->
      <g transform="translate(516.752206 613.438438) scale(0.1 -0.1)">
       <use xlink:href="#DejaVuSans-32"/>
       <use xlink:href="#DejaVuSans-30" x="63.623047"/>
       <use xlink:href="#DejaVuSans-2d" x="127.246094"/>
       <use xlink:href="#DejaVuSans-32" x="163.330078"/>
       <use xlink:href="#DejaVuSans-35" x="226.953125"/>
       <use xlink:href="#DejaVuSans-6d" x="290.576172"/>
      </g>
     </g>
    </g>
    <g id="xtick_6">
     <g id="line2d_6">
      <g>
       <use xlink:href="#m8014295eaf" x="632.1338" y="598.84" style="stroke: #000000; stroke-width: 0.8"/>
      </g>
     </g>
     <g id="text_6">
      <!-- 25-30m -->
      <g transform="translate(612.734581 613.438438) scale(0.1 -0.1)">
       <defs>
        <path id="DejaVuSans-33" d="M 2597 2516 
Q 3050 2419 3304 2112 
Q 3559 1806 3559 1356 
Q 3559 666 3084 287 
Q 2609 -91 1734 -91 
Q 1441 -91 1130 -33 
Q 819 25 488 141 
L 488 750 
Q 750 597 1062 519 
Q 1375 441 1716 441 
Q 2309 441 2620 675 
Q 2931 909 2931 1356 
Q 2931 1769 2642 2001 
Q 2353 2234 1838 2234 
L 1294 2234 
L 1294 2753 
L 1863 2753 
Q 2328 2753 2575 2939 
Q 2822 3125 2822 3475 
Q 2822 3834 2567 4026 
Q 2313 4219 1838 4219 
Q 1578 4219 1281 4162 
Q 984 4106 628 3988 
L 628 4550 
Q 988 4650 1302 4700 
Q 1616 4750 1894 4750 
Q 2613 4750 3031 4423 
Q 3450 4097 3450 3541 
Q 3450 3153 3228 2886 
Q 3006 2619 2597 2516 
z
" transform="scale(0.015625)"/>
       </defs>
       <use xlink:href="#DejaVuSans-32"/>
       <use xlink:href="#DejaVuSans-35" x="63.623047"/>
       <use xlink:href="#DejaVuSans-2d" x="127.246094"/>
       <use xlink:href="#DejaVuSans-33" x="163.330078"/>
       <use xlink:href="#DejaVuSans-30" x="226.953125"/>
       <use xlink:href="#DejaVuSans-6d" x="290.576172"/>
      </g>
     </g>
    </g>
    <g id="xtick_7">
     <g id="line2d_7">
      <g>
       <use xlink:href="#m8014295eaf" x="728.116175" y="598.84" style="stroke: #000000; stroke-width: 0.8"/>
      </g>
     </g>
     <g id="text_7">
      <!-- 30-35m -->
      <g transform="translate(708.716956 613.438438) scale(0.1 -0.1)">
       <use xlink:href="#DejaVuSans-33"/>
       <use xlink:href="#DejaVuSans-30" x="63.623047"/>
       <use xlink:href="#DejaVuSans-2d" x="127.246094"/>
       <use xlink:href="#DejaVuSans-33" x="163.330078"/>
       <use xlink:href="#DejaVuSans-35" x="226.953125"/>
       <use xlink:href="#DejaVuSans-6d" x="290.576172"/>
      </g>
     </g>
    </g>
    <g id="xtick_8">
     <g id="line2d_8">
      <g>
       <use xlink:href="#m8014295eaf" x="824.098549" y="598.84" style="stroke: #000000; stroke-width: 0.8"/>
      </g>
     </g>
     <g id="text_8">
      <!-- 35-40m -->
      <g transform="translate(804.699331 613.438438) scale(0.1 -0.1)">
       <defs>
        <path id="DejaVuSans-34" d="M 2419 4116 
L 825 1625 
L 2419 1625 
L 2419 4116 
z
M 2253 4666 
L 3047 4666 
L 3047 1625 
L 3713 1625 
L 3713 1100 
L 3047 1100 
L 3047 0 
L 2419 0 
L 2419 1100 
L 313 1100 
L 313 1709 
L 2253 4666 
z
" transform="scale(0.015625)"/>
       </defs>
       <use xlink:href="#DejaVuSans-33"/>
       <use xlink:href="#DejaVuSans-35" x="63.623047"/>
       <use xlink:href="#DejaVuSans-2d" x="127.246094"/>
       <use xlink:href="#DejaVuSans-34" x="163.330078"/>
       <use xlink:href="#DejaVuSans-30" x="226.953125"/>
       <use xlink:href="#DejaVuSans-6d" x="290.576172"/>
      </g>
     </g>
    </g>
    <g id="xtick_9">
     <g id="line2d_9">
      <g>
       <use xlink:href="#m8014295eaf" x="920.080924" y="598.84" style="stroke: #000000; stroke-width: 0.8"/>
      </g>
     </g>
     <g id="text_9">
      <!-- 40-45m -->
      <g transform="translate(900.681705 613.438438) scale(0.1 -0.1)">
       <use xlink:href="#DejaVuSans-34"/>
       <use xlink:href="#DejaVuSans-30" x="63.623047"/>
       <use xlink:href="#DejaVuSans-2d" x="127.246094"/>
       <use xlink:href="#DejaVuSans-34" x="163.330078"/>
       <use xlink:href="#DejaVuSans-35" x="226.953125"/>
       <use xlink:href="#DejaVuSans-6d" x="290.576172"/>
      </g>
     </g>
    </g>
    <g id="xtick_10">
     <g id="line2d_10">
      <g>
       <use xlink:href="#m8014295eaf" x="1016.063299" y="598.84" style="stroke: #000000; stroke-width: 0.8"/>
      </g>
     </g>
     <g id="text_10">
      <!-- 45-50m -->
      <g transform="translate(996.66408 613.438438) scale(0.1 -0.1)">
       <use xlink:href="#DejaVuSans-34"/>
       <use xlink:href="#DejaVuSans-35" x="63.623047"/>
       <use xlink:href="#DejaVuSans-2d" x="127.246094"/>
       <use xlink:href="#DejaVuSans-35" x="163.330078"/>
       <use xlink:href="#DejaVuSans-30" x="226.953125"/>
       <use xlink:href="#DejaVuSans-6d" x="290.576172"/>
      </g>
     </g>
    </g>
    <g id="text_11">
     <!-- Height (m) -->
     <g transform="translate(536.898594 630.155938) scale(0.14 -0.14)">
      <defs>
       <path id="DejaVuSans-48" d="M 628 4666 
L 1259 4666 
L 1259 2753 
L 3553 2753 
L 3553 4666 
L 4184 4666 
L 4184 0 
L 3553 0 
L 3553 2222 
L 1259 2222 
L 1259 0 
L 628 0 
L 628 4666 
z
" transform="scale(0.015625)"/>
       <path id="DejaVuSans-65" d="M 3597 1894 
L 3597 1613 
L 953 1613 
Q 991 1019 1311 708 
Q 1631 397 2203 397 
Q 2534 397 2845 478 
Q 3156 559 3463 722 
L 3463 178 
Q 3153 47 2828 -22 
Q 2503 -91 2169 -91 
Q 1331 -91 842 396 
Q 353 884 353 1716 
Q 353 2575 817 3079 
Q 1281 3584 2069 3584 
Q 2775 3584 3186 3129 
Q 3597 2675 3597 1894 
z
M 3022 2063 
Q 3016 2534 2758 2815 
Q 2500 3097 2075 3097 
Q 1594 3097 1305 2825 
Q 1016 2553 972 2059 
L 3022 2063 
z
" transform="scale(0.015625)"/>
       <path id="DejaVuSans-69" d="M 603 3500 
L 1178 3500 
L 1178 0 
L 603 0 
L 603 3500 
z
M 603 4863 
L 1178 4863 
L 1178 4134 
L 603 4134 
L 603 4863 
z
" transform="scale(0.015625)"/>
       <path id="DejaVuSans-67" d="M 2906 1791 
Q 2906 2416 2648 2759 
Q 2391 3103 1925 3103 
Q 1463 3103 1205 2759 
Q 947 2416 947 1791 
Q 947 1169 1205 825 
Q 1463 481 1925 481 
Q 2391 481 2648 825 
Q 2906 1169 2906 1791 
z
M 3481 434 
Q 3481 -459 3084 -895 
Q 2688 -1331 1869 -1331 
Q 1566 -1331 1297 -1286 
Q 1028 -1241 775 -1147 
L 775 -588 
Q 1028 -725 1275 -790 
Q 1522 -856 1778 -856 
Q 2344 -856 2625 -561 
Q 2906 -266 2906 331 
L 2906 616 
Q 2728 306 2450 153 
Q 2172 0 1784 0 
Q 1141 0 747 490 
Q 353 981 353 1791 
Q 353 2603 747 3093 
Q 1141 3584 1784 3584 
Q 2172 3584 2450 3431 
Q 2728 3278 2906 2969 
L 2906 3500 
L 3481 3500 
L 3481 434 
z
" transform="scale(0.015625)"/>
       <path id="DejaVuSans-68" d="M 3513 2113 
L 3513 0 
L 2938 0 
L 2938 2094 
Q 2938 2591 2744 2837 
Q 2550 3084 2163 3084 
Q 1697 3084 1428 2787 
Q 1159 2491 1159 1978 
L 1159 0 
L 581 0 
L 581 4863 
L 1159 4863 
L 1159 2956 
Q 1366 3272 1645 3428 
Q 1925 3584 2291 3584 
Q 2894 3584 3203 3211 
Q 3513 2838 3513 2113 
z
" transform="scale(0.015625)"/>
       <path id="DejaVuSans-74" d="M 1172 4494 
L 1172 3500 
L 2356 3500 
L 2356 3053 
L 1172 3053 
L 1172 1153 
Q 1172 725 1289 603 
Q 1406 481 1766 481 
L 2356 481 
L 2356 0 
L 1766 0 
Q 1100 0 847 248 
Q 594 497 594 1153 
L 594 3053 
L 172 3053 
L 172 3500 
L 594 3500 
L 594 4494 
L 1172 4494 
z
" transform="scale(0.015625)"/>
       <path id="DejaVuSans-20" transform="scale(0.015625)"/>
       <path id="DejaVuSans-28" d="M 1984 4856 
Q 1566 4138 1362 3434 
Q 1159 2731 1159 2009 
Q 1159 1288 1364 580 
Q 1569 -128 1984 -844 
L 1484 -844 
Q 1016 -109 783 600 
Q 550 1309 550 2009 
Q 550 2706 781 3412 
Q 1013 4119 1484 4856 
L 1984 4856 
z
" transform="scale(0.015625)"/>
       <path id="DejaVuSans-29" d="M 513 4856 
L 1013 4856 
Q 1481 4119 1714 3412 
Q 1947 2706 1947 2009 
Q 1947 1309 1714 600 
Q 1481 -109 1013 -844 
L 513 -844 
Q 928 -128 1133 580 
Q 1338 1288 1338 2009 
Q 1338 2731 1133 3434 
Q 928 4138 513 4856 
z
" transform="scale(0.015625)"/>
      </defs>
      <use xlink:href="#DejaVuSans-48"/>
      <use xlink:href="#DejaVuSans-65" x="75.195312"/>
      <use xlink:href="#DejaVuSans-69" x="136.71875"/>
      <use xlink:href="#DejaVuSans-67" x="164.501953"/>
      <use xlink:href="#DejaVuSans-68" x="227.978516"/>
      <use xlink:href="#DejaVuSans-74" x="291.357422"/>
      <use xlink:href="#DejaVuSans-20" x="330.566406"/>
      <use xlink:href="#DejaVuSans-28" x="362.353516"/>
      <use xlink:href="#DejaVuSans-6d" x="401.367188"/>
      <use xlink:href="#DejaVuSans-29" x="498.779297"/>
     </g>
    </g>
   </g>
   <g id="matplotlib.axis_2">
    <g id="ytick_1">
     <g id="line2d_11">
      <defs>
       <path id="m233acce9f7" d="M 0 0 
L -3.5 0 
" style="stroke: #000000; stroke-width: 0.8"/>
      </defs>
      <g>
       <use xlink:href="#m233acce9f7" x="57.199375" y="598.84" style="stroke: #000000; stroke-width: 0.8"/>
      </g>
     </g>
     <g id="text_12">
      <!-- 0 -->
      <g transform="translate(43.836875 602.639219) scale(0.1 -0.1)">
       <use xlink:href="#DejaVuSans-30"/>
      </g>
     </g>
    </g>
    <g id="ytick_2">
     <g id="line2d_12">
      <g>
       <use xlink:href="#m233acce9f7" x="57.199375" y="521.90572" style="stroke: #000000; stroke-width: 0.8"/>
      </g>
     </g>
     <g id="text_13">
      <!-- 500 -->
      <g transform="translate(31.111875 525.704939) scale(0.1 -0.1)">
       <use xlink:href="#DejaVuSans-35"/>
       <use xlink:href="#DejaVuSans-30" x="63.623047"/>
       <use xlink:href="#DejaVuSans-30" x="127.246094"/>
      </g>
     </g>
    </g>
    <g id="ytick_3">
     <g id="line2d_13">
      <g>
       <use xlink:href="#m233acce9f7" x="57.199375" y="444.97144" style="stroke: #000000; stroke-width: 0.8"/>
      </g>
     </g>
     <g id="text_14">
      <!-- 1000 -->
      <g transform="translate(24.749375 448.770659) scale(0.1 -0.1)">
       <use xlink:href="#DejaVuSans-31"/>
       <use xlink:href="#DejaVuSans-30" x="63.623047"/>
       <use xlink:href="#DejaVuSans-30" x="127.246094"/>
       <use xlink:href="#DejaVuSans-30" x="190.869141"/>
      </g>
     </g>
    </g>
    <g id="ytick_4">
     <g id="line2d_14">
      <g>
       <use xlink:href="#m233acce9f7" x="57.199375" y="368.03716" style="stroke: #000000; stroke-width: 0.8"/>
      </g>
     </g>
     <g id="text_15">
      <!-- 1500 -->
      <g transform="translate(24.749375 371.836379) scale(0.1 -0.1)">
       <use xlink:href="#DejaVuSans-31"/>
       <use xlink:href="#DejaVuSans-35" x="63.623047"/>
       <use xlink:href="#DejaVuSans-30" x="127.246094"/>
       <use xlink:href="#DejaVuSans-30" x="190.869141"/>
      </g>
     </g>
    </g>
    <g id="ytick_5">
     <g id="line2d_15">
      <g>
       <use xlink:href="#m233acce9f7" x="57.199375" y="291.10288" style="stroke: #000000; stroke-width: 0.8"/>
      </g>
     </g>
     <g id="text_16">
      <!-- 2000 -->
      <g transform="translate(24.749375 294.902099) scale(0.1 -0.1)">
       <use xlink:href="#DejaVuSans-32"/>
       <use xlink:href="#DejaVuSans-30" x="63.623047"/>
       <use xlink:href="#DejaVuSans-30" x="127.246094"/>
       <use xlink:href="#DejaVuSans-30" x="190.869141"/>
      </g>
     </g>
    </g>
    <g id="ytick_6">
     <g id="line2d_16">
      <g>
       <use xlink:href="#m233acce9f7" x="57.199375" y="214.1686" style="stroke: #000000; stroke-width: 0.8"/>
      </g>
     </g>
     <g id="text_17">
      <!-- 2500 -->
      <g transform="translate(24.749375 217.967819) scale(0.1 -0.1)">
       <use xlink:href="#DejaVuSans-32"/>
       <use xlink:href="#DejaVuSans-35" x="63.623047"/>
       <use xlink:href="#DejaVuSans-30" x="127.246094"/>
       <use xlink:href="#DejaVuSans-30" x="190.869141"/>
      </g>
     </g>
    </g>
    <g id="ytick_7">
     <g id="line2d_17">
      <g>
       <use xlink:href="#m233acce9f7" x="57.199375" y="137.23432" style="stroke: #000000; stroke-width: 0.8"/>
      </g>
     </g>
     <g id="text_18">
      <!-- 3000 -->
      <g transform="translate(24.749375 141.033539) scale(0.1 -0.1)">
       <use xlink:href="#DejaVuSans-33"/>
       <use xlink:href="#DejaVuSans-30" x="63.623047"/>
       <use xlink:href="#DejaVuSans-30" x="127.246094"/>
       <use xlink:href="#DejaVuSans-30" x="190.869141"/>
      </g>
     </g>
    </g>
    <g id="ytick_8">
     <g id="line2d_18">
      <g>
       <use xlink:href="#m233acce9f7" x="57.199375" y="60.30004" style="stroke: #000000; stroke-width: 0.8"/>
      </g>
     </g>
     <g id="text_19">
      <!-- 3500 -->
      <g transform="translate(24.749375 64.099259) scale(0.1 -0.1)">
       <use xlink:href="#DejaVuSans-33"/>
       <use xlink:href="#DejaVuSans-35" x="63.623047"/>
       <use xlink:href="#DejaVuSans-30" x="127.246094"/>
       <use xlink:href="#DejaVuSans-30" x="190.869141"/>
      </g>
     </g>
    </g>
    <g id="text_20">
     <!-- Count -->
     <g transform="translate(17.837813 323.807813) rotate(-90) scale(0.14 -0.14)">
      <defs>
       <path id="DejaVuSans-43" d="M 4122 4306 
L 4122 3641 
Q 3803 3938 3442 4084 
Q 3081 4231 2675 4231 
Q 1875 4231 1450 3742 
Q 1025 3253 1025 2328 
Q 1025 1406 1450 917 
Q 1875 428 2675 428 
Q 3081 428 3442 575 
Q 3803 722 4122 1019 
L 4122 359 
Q 3791 134 3420 21 
Q 3050 -91 2638 -91 
Q 1578 -91 968 557 
Q 359 1206 359 2328 
Q 359 3453 968 4101 
Q 1578 4750 2638 4750 
Q 3056 4750 3426 4639 
Q 3797 4528 4122 4306 
z
" transform="scale(0.015625)"/>
       <path id="DejaVuSans-6f" d="M 1959 3097 
Q 1497 3097 1228 2736 
Q 959 2375 959 1747 
Q 959 1119 1226 758 
Q 1494 397 1959 397 
Q 2419 397 2687 759 
Q 2956 1122 2956 1747 
Q 2956 2369 2687 2733 
Q 2419 3097 1959 3097 
z
M 1959 3584 
Q 2709 3584 3137 3096 
Q 3566 2609 3566 1747 
Q 3566 888 3137 398 
Q 2709 -91 1959 -91 
Q 1206 -91 779 398 
Q 353 888 353 1747 
Q 353 2609 779 3096 
Q 1206 3584 1959 3584 
z
" transform="scale(0.015625)"/>
       <path id="DejaVuSans-75" d="M 544 1381 
L 544 3500 
L 1119 3500 
L 1119 1403 
Q 1119 906 1312 657 
Q 1506 409 1894 409 
Q 2359 409 2629 706 
Q 2900 1003 2900 1516 
L 2900 3500 
L 3475 3500 
L 3475 0 
L 2900 0 
L 2900 538 
Q 2691 219 2414 64 
Q 2138 -91 1772 -91 
Q 1169 -91 856 284 
Q 544 659 544 1381 
z
M 1991 3584 
L 1991 3584 
z
" transform="scale(0.015625)"/>
       <path id="DejaVuSans-6e" d="M 3513 2113 
L 3513 0 
L 2938 0 
L 2938 2094 
Q 2938 2591 2744 2837 
Q 2550 3084 2163 3084 
Q 1697 3084 1428 2787 
Q 1159 2491 1159 1978 
L 1159 0 
L 581 0 
L 581 3500 
L 1159 3500 
L 1159 2956 
Q 1366 3272 1645 3428 
Q 1925 3584 2291 3584 
Q 2894 3584 3203 3211 
Q 3513 2838 3513 2113 
z
" transform="scale(0.015625)"/>
      </defs>
      <use xlink:href="#DejaVuSans-43"/>
      <use xlink:href="#DejaVuSans-6f" x="69.824219"/>
      <use xlink:href="#DejaVuSans-75" x="131.005859"/>
      <use xlink:href="#DejaVuSans-6e" x="194.384766"/>
      <use xlink:href="#DejaVuSans-74" x="257.763672"/>
     </g>
    </g>
   </g>
   <g id="patch_52">
    <path d="M 104.230739 598.84 
L 104.230739 598.84 
L 123.427214 598.84 
L 123.427214 598.84 
L 142.623689 598.84 
L 142.623689 467.128513 
L 161.820163 467.128513 
L 161.820163 90.612146 
L 181.016638 90.612146 
L 181.016638 467.128513 
L 200.213113 467.128513 
L 200.213113 529.445279 
L 219.409588 529.445279 
L 219.409588 544.832135 
L 238.606063 544.832135 
L 238.606063 548.217244 
L 257.802538 548.217244 
L 257.802538 556.987752 
L 276.999013 556.987752 
L 276.999013 564.835048 
L 296.195488 564.835048 
L 296.195488 568.527894 
L 315.391963 568.527894 
L 315.391963 572.220739 
L 334.588438 572.220739 
L 334.588438 572.836213 
L 353.784913 572.836213 
L 353.784913 575.913585 
L 372.981388 575.913585 
L 372.981388 569.912711 
L 392.177863 569.912711 
L 392.177863 569.758842 
L 411.374338 569.758842 
L 411.374338 565.296654 
L 430.570813 565.296654 
L 430.570813 558.064832 
L 449.767288 558.064832 
L 449.767288 545.755347 
L 468.963763 545.755347 
L 468.963763 536.523233 
L 488.160238 536.523233 
L 488.160238 531.445571 
L 507.356713 531.445571 
L 507.356713 526.675645 
L 526.553188 526.675645 
L 526.553188 522.059589 
L 545.749663 522.059589 
L 545.749663 529.753017 
L 564.946138 529.753017 
L 564.946138 554.679723 
L 584.142612 554.679723 
L 584.142612 570.989791 
L 603.339087 570.989791 
L 603.339087 579.914167 
L 622.535562 579.914167 
L 622.535562 588.069201 
L 641.732037 588.069201 
L 641.732037 592.37752 
L 660.928512 592.37752 
L 660.928512 594.685549 
L 680.124987 594.685549 
L 680.124987 596.839709 
L 699.321462 596.839709 
L 699.321462 597.301314 
L 718.517937 597.301314 
L 718.517937 598.070657 
L 737.714412 598.070657 
L 737.714412 598.224526 
L 756.910887 598.224526 
L 756.910887 597.76292 
L 776.107362 597.76292 
L 776.107362 598.686131 
L 795.303837 598.686131 
L 795.303837 598.686131 
L 814.500312 598.686131 
L 814.500312 598.686131 
L 833.696787 598.686131 
L 833.696787 598.84 
L 852.893262 598.84 
L 852.893262 598.686131 
L 872.089737 598.686131 
L 872.089737 598.84 
L 891.286212 598.84 
L 891.286212 598.84 
L 910.482687 598.84 
L 910.482687 598.84 
L 929.679162 598.84 
L 929.679162 598.686131 
L 948.875637 598.686131 
L 948.875637 598.84 
L 968.072112 598.84 
L 968.072112 598.84 
L 987.268587 598.84 
L 987.268587 598.84 
L 1006.465061 598.84 
L 1006.465061 598.84 
L 1025.661536 598.84 
L 1025.661536 598.84 
L 1044.858011 598.84 
L 1044.858011 598.84 
" clip-path="url(#p0bbb4e0af6)" style="fill: none; stroke: #000000; stroke-linejoin: miter"/>
   </g>
   <g id="patch_53">
    <path d="M 57.199375 598.84 
L 57.199375 7.2 
" style="fill: none; stroke: #000000; stroke-width: 0.8; stroke-linejoin: miter; stroke-linecap: square"/>
   </g>
   <g id="patch_54">
    <path d="M 1091.889375 598.84 
L 1091.889375 7.2 
" style="fill: none; stroke: #000000; stroke-width: 0.8; stroke-linejoin: miter; stroke-linecap: square"/>
   </g>
   <g id="patch_55">
    <path d="M 57.199375 598.84 
L 1091.889375 598.84 
" style="fill: none; stroke: #000000; stroke-width: 0.8; stroke-linejoin: miter; stroke-linecap: square"/>
   </g>
   <g id="patch_56">
    <path d="M 57.199375 7.2 
L 1091.889375 7.2 
" style="fill: none; stroke: #000000; stroke-width: 0.8; stroke-linejoin: miter; stroke-linecap: square"/>
   </g>
   <g id="legend_1">
    <g id="patch_57">
     <path d="M 997.078438 44.55625 
L 1084.889375 44.55625 
Q 1086.889375 44.55625 1086.889375 42.55625 
L 1086.889375 14.2 
Q 1086.889375 12.2 1084.889375 12.2 
L 997.078438 12.2 
Q 995.078438 12.2 995.078438 14.2 
L 995.078438 42.55625 
Q 995.078438 44.55625 997.078438 44.55625 
z
" style="fill: #ffffff; opacity: 0.8; stroke: #cccccc; stroke-linejoin: miter"/>
    </g>
    <g id="patch_58">
     <path d="M 999.078438 23.798438 
L 1019.078438 23.798438 
L 1019.078438 16.798438 
L 999.078438 16.798438 
z
" style="fill: #d3d3d3"/>
    </g>
    <g id="text_21">
     <!-- GEDI RH98 -->
     <g transform="translate(1027.078438 23.798438) scale(0.1 -0.1)">
      <defs>
       <path id="DejaVuSans-47" d="M 3809 666 
L 3809 1919 
L 2778 1919 
L 2778 2438 
L 4434 2438 
L 4434 434 
Q 4069 175 3628 42 
Q 3188 -91 2688 -91 
Q 1594 -91 976 548 
Q 359 1188 359 2328 
Q 359 3472 976 4111 
Q 1594 4750 2688 4750 
Q 3144 4750 3555 4637 
Q 3966 4525 4313 4306 
L 4313 3634 
Q 3963 3931 3569 4081 
Q 3175 4231 2741 4231 
Q 1884 4231 1454 3753 
Q 1025 3275 1025 2328 
Q 1025 1384 1454 906 
Q 1884 428 2741 428 
Q 3075 428 3337 486 
Q 3600 544 3809 666 
z
" transform="scale(0.015625)"/>
       <path id="DejaVuSans-45" d="M 628 4666 
L 3578 4666 
L 3578 4134 
L 1259 4134 
L 1259 2753 
L 3481 2753 
L 3481 2222 
L 1259 2222 
L 1259 531 
L 3634 531 
L 3634 0 
L 628 0 
L 628 4666 
z
" transform="scale(0.015625)"/>
       <path id="DejaVuSans-44" d="M 1259 4147 
L 1259 519 
L 2022 519 
Q 2988 519 3436 956 
Q 3884 1394 3884 2338 
Q 3884 3275 3436 3711 
Q 2988 4147 2022 4147 
L 1259 4147 
z
M 628 4666 
L 1925 4666 
Q 3281 4666 3915 4102 
Q 4550 3538 4550 2338 
Q 4550 1131 3912 565 
Q 3275 0 1925 0 
L 628 0 
L 628 4666 
z
" transform="scale(0.015625)"/>
       <path id="DejaVuSans-49" d="M 628 4666 
L 1259 4666 
L 1259 0 
L 628 0 
L 628 4666 
z
" transform="scale(0.015625)"/>
       <path id="DejaVuSans-52" d="M 2841 2188 
Q 3044 2119 3236 1894 
Q 3428 1669 3622 1275 
L 4263 0 
L 3584 0 
L 2988 1197 
Q 2756 1666 2539 1819 
Q 2322 1972 1947 1972 
L 1259 1972 
L 1259 0 
L 628 0 
L 628 4666 
L 2053 4666 
Q 2853 4666 3247 4331 
Q 3641 3997 3641 3322 
Q 3641 2881 3436 2590 
Q 3231 2300 2841 2188 
z
M 1259 4147 
L 1259 2491 
L 2053 2491 
Q 2509 2491 2742 2702 
Q 2975 2913 2975 3322 
Q 2975 3731 2742 3939 
Q 2509 4147 2053 4147 
L 1259 4147 
z
" transform="scale(0.015625)"/>
       <path id="DejaVuSans-39" d="M 703 97 
L 703 672 
Q 941 559 1184 500 
Q 1428 441 1663 441 
Q 2288 441 2617 861 
Q 2947 1281 2994 2138 
Q 2813 1869 2534 1725 
Q 2256 1581 1919 1581 
Q 1219 1581 811 2004 
Q 403 2428 403 3163 
Q 403 3881 828 4315 
Q 1253 4750 1959 4750 
Q 2769 4750 3195 4129 
Q 3622 3509 3622 2328 
Q 3622 1225 3098 567 
Q 2575 -91 1691 -91 
Q 1453 -91 1209 -44 
Q 966 3 703 97 
z
M 1959 2075 
Q 2384 2075 2632 2365 
Q 2881 2656 2881 3163 
Q 2881 3666 2632 3958 
Q 2384 4250 1959 4250 
Q 1534 4250 1286 3958 
Q 1038 3666 1038 3163 
Q 1038 2656 1286 2365 
Q 1534 2075 1959 2075 
z
" transform="scale(0.015625)"/>
       <path id="DejaVuSans-38" d="M 2034 2216 
Q 1584 2216 1326 1975 
Q 1069 1734 1069 1313 
Q 1069 891 1326 650 
Q 1584 409 2034 409 
Q 2484 409 2743 651 
Q 3003 894 3003 1313 
Q 3003 1734 2745 1975 
Q 2488 2216 2034 2216 
z
M 1403 2484 
Q 997 2584 770 2862 
Q 544 3141 544 3541 
Q 544 4100 942 4425 
Q 1341 4750 2034 4750 
Q 2731 4750 3128 4425 
Q 3525 4100 3525 3541 
Q 3525 3141 3298 2862 
Q 3072 2584 2669 2484 
Q 3125 2378 3379 2068 
Q 3634 1759 3634 1313 
Q 3634 634 3220 271 
Q 2806 -91 2034 -91 
Q 1263 -91 848 271 
Q 434 634 434 1313 
Q 434 1759 690 2068 
Q 947 2378 1403 2484 
z
M 1172 3481 
Q 1172 3119 1398 2916 
Q 1625 2713 2034 2713 
Q 2441 2713 2670 2916 
Q 2900 3119 2900 3481 
Q 2900 3844 2670 4047 
Q 2441 4250 2034 4250 
Q 1625 4250 1398 4047 
Q 1172 3844 1172 3481 
z
" transform="scale(0.015625)"/>
      </defs>
      <use xlink:href="#DejaVuSans-47"/>
      <use xlink:href="#DejaVuSans-45" x="77.490234"/>
      <use xlink:href="#DejaVuSans-44" x="140.673828"/>
      <use xlink:href="#DejaVuSans-49" x="217.675781"/>
      <use xlink:href="#DejaVuSans-20" x="247.167969"/>
      <use xlink:href="#DejaVuSans-52" x="278.955078"/>
      <use xlink:href="#DejaVuSans-48" x="348.4375"/>
      <use xlink:href="#DejaVuSans-39" x="423.632812"/>
      <use xlink:href="#DejaVuSans-38" x="487.255859"/>
     </g>
    </g>
    <g id="patch_59">
     <path d="M 999.078438 38.476563 
L 1019.078438 38.476563 
L 1019.078438 31.476563 
L 999.078438 31.476563 
L 999.078438 38.476563 
z
" style="fill: none; stroke: #000000; stroke-linejoin: miter"/>
    </g>
    <g id="text_22">
     <!-- vit-base-kd -->
     <g transform="translate(1027.078438 38.476563) scale(0.1 -0.1)">
      <defs>
       <path id="DejaVuSans-76" d="M 191 3500 
L 800 3500 
L 1894 563 
L 2988 3500 
L 3597 3500 
L 2284 0 
L 1503 0 
L 191 3500 
z
" transform="scale(0.015625)"/>
       <path id="DejaVuSans-62" d="M 3116 1747 
Q 3116 2381 2855 2742 
Q 2594 3103 2138 3103 
Q 1681 3103 1420 2742 
Q 1159 2381 1159 1747 
Q 1159 1113 1420 752 
Q 1681 391 2138 391 
Q 2594 391 2855 752 
Q 3116 1113 3116 1747 
z
M 1159 2969 
Q 1341 3281 1617 3432 
Q 1894 3584 2278 3584 
Q 2916 3584 3314 3078 
Q 3713 2572 3713 1747 
Q 3713 922 3314 415 
Q 2916 -91 2278 -91 
Q 1894 -91 1617 61 
Q 1341 213 1159 525 
L 1159 0 
L 581 0 
L 581 4863 
L 1159 4863 
L 1159 2969 
z
" transform="scale(0.015625)"/>
       <path id="DejaVuSans-61" d="M 2194 1759 
Q 1497 1759 1228 1600 
Q 959 1441 959 1056 
Q 959 750 1161 570 
Q 1363 391 1709 391 
Q 2188 391 2477 730 
Q 2766 1069 2766 1631 
L 2766 1759 
L 2194 1759 
z
M 3341 1997 
L 3341 0 
L 2766 0 
L 2766 531 
Q 2569 213 2275 61 
Q 1981 -91 1556 -91 
Q 1019 -91 701 211 
Q 384 513 384 1019 
Q 384 1609 779 1909 
Q 1175 2209 1959 2209 
L 2766 2209 
L 2766 2266 
Q 2766 2663 2505 2880 
Q 2244 3097 1772 3097 
Q 1472 3097 1187 3025 
Q 903 2953 641 2809 
L 641 3341 
Q 956 3463 1253 3523 
Q 1550 3584 1831 3584 
Q 2591 3584 2966 3190 
Q 3341 2797 3341 1997 
z
" transform="scale(0.015625)"/>
       <path id="DejaVuSans-73" d="M 2834 3397 
L 2834 2853 
Q 2591 2978 2328 3040 
Q 2066 3103 1784 3103 
Q 1356 3103 1142 2972 
Q 928 2841 928 2578 
Q 928 2378 1081 2264 
Q 1234 2150 1697 2047 
L 1894 2003 
Q 2506 1872 2764 1633 
Q 3022 1394 3022 966 
Q 3022 478 2636 193 
Q 2250 -91 1575 -91 
Q 1294 -91 989 -36 
Q 684 19 347 128 
L 347 722 
Q 666 556 975 473 
Q 1284 391 1588 391 
Q 1994 391 2212 530 
Q 2431 669 2431 922 
Q 2431 1156 2273 1281 
Q 2116 1406 1581 1522 
L 1381 1569 
Q 847 1681 609 1914 
Q 372 2147 372 2553 
Q 372 3047 722 3315 
Q 1072 3584 1716 3584 
Q 2034 3584 2315 3537 
Q 2597 3491 2834 3397 
z
" transform="scale(0.015625)"/>
       <path id="DejaVuSans-6b" d="M 581 4863 
L 1159 4863 
L 1159 1991 
L 2875 3500 
L 3609 3500 
L 1753 1863 
L 3688 0 
L 2938 0 
L 1159 1709 
L 1159 0 
L 581 0 
L 581 4863 
z
" transform="scale(0.015625)"/>
       <path id="DejaVuSans-64" d="M 2906 2969 
L 2906 4863 
L 3481 4863 
L 3481 0 
L 2906 0 
L 2906 525 
Q 2725 213 2448 61 
Q 2172 -91 1784 -91 
Q 1150 -91 751 415 
Q 353 922 353 1747 
Q 353 2572 751 3078 
Q 1150 3584 1784 3584 
Q 2172 3584 2448 3432 
Q 2725 3281 2906 2969 
z
M 947 1747 
Q 947 1113 1208 752 
Q 1469 391 1925 391 
Q 2381 391 2643 752 
Q 2906 1113 2906 1747 
Q 2906 2381 2643 2742 
Q 2381 3103 1925 3103 
Q 1469 3103 1208 2742 
Q 947 2381 947 1747 
z
" transform="scale(0.015625)"/>
      </defs>
      <use xlink:href="#DejaVuSans-76"/>
      <use xlink:href="#DejaVuSans-69" x="59.179688"/>
      <use xlink:href="#DejaVuSans-74" x="86.962891"/>
      <use xlink:href="#DejaVuSans-2d" x="126.171875"/>
      <use xlink:href="#DejaVuSans-62" x="162.255859"/>
      <use xlink:href="#DejaVuSans-61" x="225.732422"/>
      <use xlink:href="#DejaVuSans-73" x="287.011719"/>
      <use xlink:href="#DejaVuSans-65" x="339.111328"/>
      <use xlink:href="#DejaVuSans-2d" x="400.634766"/>
      <use xlink:href="#DejaVuSans-6b" x="436.71875"/>
      <use xlink:href="#DejaVuSans-64" x="494.628906"/>
     </g>
    </g>
   </g>
  </g>
  <g id="axes_2">
   <g id="matplotlib.axis_3">
    <g id="ytick_9">
     <g id="line2d_19">
      <defs>
       <path id="mf8a3cf61d7" d="M 0 0 
L 3.5 0 
" style="stroke: #000000; stroke-width: 0.8"/>
      </defs>
      <g>
       <use xlink:href="#mf8a3cf61d7" x="1091.889375" y="598.647411" style="stroke: #000000; stroke-width: 0.8"/>
      </g>
     </g>
     <g id="text_23">
      <!-- −25 -->
      <g transform="translate(1098.889375 602.44663) scale(0.1 -0.1)">
       <defs>
        <path id="DejaVuSans-2212" d="M 678 2272 
L 4684 2272 
L 4684 1741 
L 678 1741 
L 678 2272 
z
" transform="scale(0.015625)"/>
       </defs>
       <use xlink:href="#DejaVuSans-2212"/>
       <use xlink:href="#DejaVuSans-32" x="83.789062"/>
       <use xlink:href="#DejaVuSans-35" x="147.412109"/>
      </g>
     </g>
    </g>
    <g id="ytick_10">
     <g id="line2d_20">
      <g>
       <use xlink:href="#mf8a3cf61d7" x="1091.889375" y="522.959133" style="stroke: #000000; stroke-width: 0.8"/>
      </g>
     </g>
     <g id="text_24">
      <!-- −20 -->
      <g transform="translate(1098.889375 526.758352) scale(0.1 -0.1)">
       <use xlink:href="#DejaVuSans-2212"/>
       <use xlink:href="#DejaVuSans-32" x="83.789062"/>
       <use xlink:href="#DejaVuSans-30" x="147.412109"/>
      </g>
     </g>
    </g>
    <g id="ytick_11">
     <g id="line2d_21">
      <g>
       <use xlink:href="#mf8a3cf61d7" x="1091.889375" y="447.270854" style="stroke: #000000; stroke-width: 0.8"/>
      </g>
     </g>
     <g id="text_25">
      <!-- −15 -->
      <g transform="translate(1098.889375 451.070073) scale(0.1 -0.1)">
       <use xlink:href="#DejaVuSans-2212"/>
       <use xlink:href="#DejaVuSans-31" x="83.789062"/>
       <use xlink:href="#DejaVuSans-35" x="147.412109"/>
      </g>
     </g>
    </g>
    <g id="ytick_12">
     <g id="line2d_22">
      <g>
       <use xlink:href="#mf8a3cf61d7" x="1091.889375" y="371.582576" style="stroke: #000000; stroke-width: 0.8"/>
      </g>
     </g>
     <g id="text_26">
      <!-- −10 -->
      <g transform="translate(1098.889375 375.381795) scale(0.1 -0.1)">
       <use xlink:href="#DejaVuSans-2212"/>
       <use xlink:href="#DejaVuSans-31" x="83.789062"/>
       <use xlink:href="#DejaVuSans-30" x="147.412109"/>
      </g>
     </g>
    </g>
    <g id="ytick_13">
     <g id="line2d_23">
      <g>
       <use xlink:href="#mf8a3cf61d7" x="1091.889375" y="295.894297" style="stroke: #000000; stroke-width: 0.8"/>
      </g>
     </g>
     <g id="text_27">
      <!-- −5 -->
      <g transform="translate(1098.889375 299.693516) scale(0.1 -0.1)">
       <use xlink:href="#DejaVuSans-2212"/>
       <use xlink:href="#DejaVuSans-35" x="83.789062"/>
      </g>
     </g>
    </g>
    <g id="ytick_14">
     <g id="line2d_24">
      <g>
       <use xlink:href="#mf8a3cf61d7" x="1091.889375" y="220.206019" style="stroke: #000000; stroke-width: 0.8"/>
      </g>
     </g>
     <g id="text_28">
      <!-- 0 -->
      <g transform="translate(1098.889375 224.005237) scale(0.1 -0.1)">
       <use xlink:href="#DejaVuSans-30"/>
      </g>
     </g>
    </g>
    <g id="ytick_15">
     <g id="line2d_25">
      <g>
       <use xlink:href="#mf8a3cf61d7" x="1091.889375" y="144.51774" style="stroke: #000000; stroke-width: 0.8"/>
      </g>
     </g>
     <g id="text_29">
      <!-- 5 -->
      <g transform="translate(1098.889375 148.316959) scale(0.1 -0.1)">
       <use xlink:href="#DejaVuSans-35"/>
      </g>
     </g>
    </g>
    <g id="ytick_16">
     <g id="line2d_26">
      <g>
       <use xlink:href="#mf8a3cf61d7" x="1091.889375" y="68.829462" style="stroke: #000000; stroke-width: 0.8"/>
      </g>
     </g>
     <g id="text_30">
      <!-- 10 -->
      <g transform="translate(1098.889375 72.62868) scale(0.1 -0.1)">
       <use xlink:href="#DejaVuSans-31"/>
       <use xlink:href="#DejaVuSans-30" x="63.623047"/>
      </g>
     </g>
    </g>
    <g id="text_31">
     <!-- Error (m) -->
     <g transform="translate(1134.631875 334.584531) rotate(-90) scale(0.14 -0.14)">
      <defs>
       <path id="DejaVuSans-72" d="M 2631 2963 
Q 2534 3019 2420 3045 
Q 2306 3072 2169 3072 
Q 1681 3072 1420 2755 
Q 1159 2438 1159 1844 
L 1159 0 
L 581 0 
L 581 3500 
L 1159 3500 
L 1159 2956 
Q 1341 3275 1631 3429 
Q 1922 3584 2338 3584 
Q 2397 3584 2469 3576 
Q 2541 3569 2628 3553 
L 2631 2963 
z
" transform="scale(0.015625)"/>
      </defs>
      <use xlink:href="#DejaVuSans-45"/>
      <use xlink:href="#DejaVuSans-72" x="63.183594"/>
      <use xlink:href="#DejaVuSans-72" x="102.546875"/>
      <use xlink:href="#DejaVuSans-6f" x="141.410156"/>
      <use xlink:href="#DejaVuSans-72" x="202.591797"/>
      <use xlink:href="#DejaVuSans-20" x="243.705078"/>
      <use xlink:href="#DejaVuSans-28" x="275.492188"/>
      <use xlink:href="#DejaVuSans-6d" x="314.505859"/>
      <use xlink:href="#DejaVuSans-29" x="411.917969"/>
     </g>
    </g>
   </g>
   <g id="patch_60">
    <path d="M 147.422807 215.538816 
L 157.021045 215.538816 
L 157.021045 198.389919 
L 147.422807 198.389919 
L 147.422807 215.538816 
z
" clip-path="url(#p0bbb4e0af6)" style="stroke: #000000; stroke-linejoin: miter"/>
   </g>
   <g id="line2d_27">
    <path d="M 152.221926 215.538816 
L 152.221926 227.700524 
" clip-path="url(#p0bbb4e0af6)" style="fill: none; stroke: #000000; stroke-linecap: square"/>
   </g>
   <g id="line2d_28">
    <path d="M 152.221926 198.389919 
L 152.221926 75.575588 
" clip-path="url(#p0bbb4e0af6)" style="fill: none; stroke: #000000; stroke-linecap: square"/>
   </g>
   <g id="line2d_29">
    <path d="M 149.822367 227.700524 
L 154.621485 227.700524 
" clip-path="url(#p0bbb4e0af6)" style="fill: none; stroke: #000000; stroke-linecap: square"/>
   </g>
   <g id="line2d_30">
    <path d="M 149.822367 75.575588 
L 154.621485 75.575588 
" clip-path="url(#p0bbb4e0af6)" style="fill: none; stroke: #000000; stroke-linecap: square"/>
   </g>
   <g id="patch_61">
    <path d="M 243.405182 248.985048 
L 253.00342 248.985048 
L 253.00342 164.408827 
L 243.405182 164.408827 
L 243.405182 248.985048 
z
" clip-path="url(#p0bbb4e0af6)" style="stroke: #000000; stroke-linejoin: miter"/>
   </g>
   <g id="line2d_31">
    <path d="M 248.204301 248.985048 
L 248.204301 288.449124 
" clip-path="url(#p0bbb4e0af6)" style="fill: none; stroke: #000000; stroke-linecap: square"/>
   </g>
   <g id="line2d_32">
    <path d="M 248.204301 164.408827 
L 248.204301 34.092727 
" clip-path="url(#p0bbb4e0af6)" style="fill: none; stroke: #000000; stroke-linecap: square"/>
   </g>
   <g id="line2d_33">
    <path d="M 245.804741 288.449124 
L 250.60386 288.449124 
" clip-path="url(#p0bbb4e0af6)" style="fill: none; stroke: #000000; stroke-linecap: square"/>
   </g>
   <g id="line2d_34">
    <path d="M 245.804741 34.092727 
L 250.60386 34.092727 
" clip-path="url(#p0bbb4e0af6)" style="fill: none; stroke: #000000; stroke-linecap: square"/>
   </g>
   <g id="patch_62">
    <path d="M 339.387557 291.234403 
L 348.985794 291.234403 
L 348.985794 157.610495 
L 339.387557 157.610495 
L 339.387557 291.234403 
z
" clip-path="url(#p0bbb4e0af6)" style="stroke: #000000; stroke-linejoin: miter"/>
   </g>
   <g id="line2d_35">
    <path d="M 344.186676 291.234403 
L 344.186676 356.473244 
" clip-path="url(#p0bbb4e0af6)" style="fill: none; stroke: #000000; stroke-linecap: square"/>
   </g>
   <g id="line2d_36">
    <path d="M 344.186676 157.610495 
L 344.186676 83.519517 
" clip-path="url(#p0bbb4e0af6)" style="fill: none; stroke: #000000; stroke-linecap: square"/>
   </g>
   <g id="line2d_37">
    <path d="M 341.787116 356.473244 
L 346.586235 356.473244 
" clip-path="url(#p0bbb4e0af6)" style="fill: none; stroke: #000000; stroke-linecap: square"/>
   </g>
   <g id="line2d_38">
    <path d="M 341.787116 83.519517 
L 346.586235 83.519517 
" clip-path="url(#p0bbb4e0af6)" style="fill: none; stroke: #000000; stroke-linecap: square"/>
   </g>
   <g id="patch_63">
    <path d="M 435.369932 262.636398 
L 444.968169 262.636398 
L 444.968169 181.070645 
L 435.369932 181.070645 
L 435.369932 262.636398 
z
" clip-path="url(#p0bbb4e0af6)" style="stroke: #000000; stroke-linejoin: miter"/>
   </g>
   <g id="line2d_39">
    <path d="M 440.16905 262.636398 
L 440.16905 415.333048 
" clip-path="url(#p0bbb4e0af6)" style="fill: none; stroke: #000000; stroke-linecap: square"/>
   </g>
   <g id="line2d_40">
    <path d="M 440.16905 181.070645 
L 440.16905 128.36177 
" clip-path="url(#p0bbb4e0af6)" style="fill: none; stroke: #000000; stroke-linecap: square"/>
   </g>
   <g id="line2d_41">
    <path d="M 437.769491 415.333048 
L 442.56861 415.333048 
" clip-path="url(#p0bbb4e0af6)" style="fill: none; stroke: #000000; stroke-linecap: square"/>
   </g>
   <g id="line2d_42">
    <path d="M 437.769491 128.36177 
L 442.56861 128.36177 
" clip-path="url(#p0bbb4e0af6)" style="fill: none; stroke: #000000; stroke-linecap: square"/>
   </g>
   <g id="patch_64">
    <path d="M 531.352306 262.716181 
L 540.950544 262.716181 
L 540.950544 211.100588 
L 531.352306 211.100588 
L 531.352306 262.716181 
z
" clip-path="url(#p0bbb4e0af6)" style="stroke: #000000; stroke-linejoin: miter"/>
   </g>
   <g id="line2d_43">
    <path d="M 536.151425 262.716181 
L 536.151425 411.015873 
" clip-path="url(#p0bbb4e0af6)" style="fill: none; stroke: #000000; stroke-linecap: square"/>
   </g>
   <g id="line2d_44">
    <path d="M 536.151425 211.100588 
L 536.151425 177.783724 
" clip-path="url(#p0bbb4e0af6)" style="fill: none; stroke: #000000; stroke-linecap: square"/>
   </g>
   <g id="line2d_45">
    <path d="M 533.751866 411.015873 
L 538.550984 411.015873 
" clip-path="url(#p0bbb4e0af6)" style="fill: none; stroke: #000000; stroke-linecap: square"/>
   </g>
   <g id="line2d_46">
    <path d="M 533.751866 177.783724 
L 538.550984 177.783724 
" clip-path="url(#p0bbb4e0af6)" style="fill: none; stroke: #000000; stroke-linecap: square"/>
   </g>
   <g id="patch_65">
    <path d="M 627.334681 301.798797 
L 636.932919 301.798797 
L 636.932919 238.930223 
L 627.334681 238.930223 
L 627.334681 301.798797 
z
" clip-path="url(#p0bbb4e0af6)" style="stroke: #000000; stroke-linejoin: miter"/>
   </g>
   <g id="line2d_47">
    <path d="M 632.1338 301.798797 
L 632.1338 388.34574 
" clip-path="url(#p0bbb4e0af6)" style="fill: none; stroke: #000000; stroke-linecap: square"/>
   </g>
   <g id="line2d_48">
    <path d="M 632.1338 238.930223 
L 632.1338 206.851979 
" clip-path="url(#p0bbb4e0af6)" style="fill: none; stroke: #000000; stroke-linecap: square"/>
   </g>
   <g id="line2d_49">
    <path d="M 629.73424 388.34574 
L 634.533359 388.34574 
" clip-path="url(#p0bbb4e0af6)" style="fill: none; stroke: #000000; stroke-linecap: square"/>
   </g>
   <g id="line2d_50">
    <path d="M 629.73424 206.851979 
L 634.533359 206.851979 
" clip-path="url(#p0bbb4e0af6)" style="fill: none; stroke: #000000; stroke-linecap: square"/>
   </g>
   <g id="patch_66">
    <path d="M 723.317056 381.315484 
L 732.915293 381.315484 
L 732.915293 297.720407 
L 723.317056 297.720407 
L 723.317056 381.315484 
z
" clip-path="url(#p0bbb4e0af6)" style="stroke: #000000; stroke-linejoin: miter"/>
   </g>
   <g id="line2d_51">
    <path d="M 728.116175 381.315484 
L 728.116175 475.803924 
" clip-path="url(#p0bbb4e0af6)" style="fill: none; stroke: #000000; stroke-linecap: square"/>
   </g>
   <g id="line2d_52">
    <path d="M 728.116175 297.720407 
L 728.116175 224.499604 
" clip-path="url(#p0bbb4e0af6)" style="fill: none; stroke: #000000; stroke-linecap: square"/>
   </g>
   <g id="line2d_53">
    <path d="M 725.716615 475.803924 
L 730.515734 475.803924 
" clip-path="url(#p0bbb4e0af6)" style="fill: none; stroke: #000000; stroke-linecap: square"/>
   </g>
   <g id="line2d_54">
    <path d="M 725.716615 224.499604 
L 730.515734 224.499604 
" clip-path="url(#p0bbb4e0af6)" style="fill: none; stroke: #000000; stroke-linecap: square"/>
   </g>
   <g id="patch_67">
    <path d="M 819.299431 462.752038 
L 828.897668 462.752038 
L 828.897668 371.047303 
L 819.299431 371.047303 
L 819.299431 462.752038 
z
" clip-path="url(#p0bbb4e0af6)" style="stroke: #000000; stroke-linejoin: miter"/>
   </g>
   <g id="line2d_55">
    <path d="M 824.098549 462.752038 
L 824.098549 528.361722 
" clip-path="url(#p0bbb4e0af6)" style="fill: none; stroke: #000000; stroke-linecap: square"/>
   </g>
   <g id="line2d_56">
    <path d="M 824.098549 371.047303 
L 824.098549 263.7534 
" clip-path="url(#p0bbb4e0af6)" style="fill: none; stroke: #000000; stroke-linecap: square"/>
   </g>
   <g id="line2d_57">
    <path d="M 821.69899 528.361722 
L 826.498109 528.361722 
" clip-path="url(#p0bbb4e0af6)" style="fill: none; stroke: #000000; stroke-linecap: square"/>
   </g>
   <g id="line2d_58">
    <path d="M 821.69899 263.7534 
L 826.498109 263.7534 
" clip-path="url(#p0bbb4e0af6)" style="fill: none; stroke: #000000; stroke-linecap: square"/>
   </g>
   <g id="patch_68">
    <path d="M 915.281805 420.379679 
L 924.880043 420.379679 
L 924.880043 317.151165 
L 915.281805 317.151165 
L 915.281805 420.379679 
z
" clip-path="url(#p0bbb4e0af6)" style="stroke: #000000; stroke-linejoin: miter"/>
   </g>
   <g id="line2d_59">
    <path d="M 920.080924 420.379679 
L 920.080924 431.924506 
" clip-path="url(#p0bbb4e0af6)" style="fill: none; stroke: #000000; stroke-linecap: square"/>
   </g>
   <g id="line2d_60">
    <path d="M 920.080924 317.151165 
L 920.080924 316.177372 
" clip-path="url(#p0bbb4e0af6)" style="fill: none; stroke: #000000; stroke-linecap: square"/>
   </g>
   <g id="line2d_61">
    <path d="M 917.681365 431.924506 
L 922.480484 431.924506 
" clip-path="url(#p0bbb4e0af6)" style="fill: none; stroke: #000000; stroke-linecap: square"/>
   </g>
   <g id="line2d_62">
    <path d="M 917.681365 316.177372 
L 922.480484 316.177372 
" clip-path="url(#p0bbb4e0af6)" style="fill: none; stroke: #000000; stroke-linecap: square"/>
   </g>
   <g id="patch_69">
    <path d="M 1011.26418 559.071583 
L 1020.862418 559.071583 
L 1020.862418 398.644 
L 1011.26418 398.644 
L 1011.26418 559.071583 
z
" clip-path="url(#p0bbb4e0af6)" style="stroke: #000000; stroke-linejoin: miter"/>
   </g>
   <g id="line2d_63">
    <path d="M 1016.063299 559.071583 
L 1016.063299 571.947273 
" clip-path="url(#p0bbb4e0af6)" style="fill: none; stroke: #000000; stroke-linecap: square"/>
   </g>
   <g id="line2d_64">
    <path d="M 1016.063299 398.644 
L 1016.063299 301.130262 
" clip-path="url(#p0bbb4e0af6)" style="fill: none; stroke: #000000; stroke-linecap: square"/>
   </g>
   <g id="line2d_65">
    <path d="M 1013.66374 571.947273 
L 1018.462858 571.947273 
" clip-path="url(#p0bbb4e0af6)" style="fill: none; stroke: #000000; stroke-linecap: square"/>
   </g>
   <g id="line2d_66">
    <path d="M 1013.66374 301.130262 
L 1018.462858 301.130262 
" clip-path="url(#p0bbb4e0af6)" style="fill: none; stroke: #000000; stroke-linecap: square"/>
   </g>
   <g id="line2d_67">
    <path d="M 57.199375 220.206019 
L 1091.889375 220.206019 
" clip-path="url(#p0bbb4e0af6)" style="fill: none; stroke-dasharray: 5.55,2.4; stroke-dashoffset: 0; stroke: #808080; stroke-width: 1.5"/>
   </g>
   <g id="line2d_68">
    <path d="M 147.422807 210.009749 
L 157.021045 210.009749 
" clip-path="url(#p0bbb4e0af6)" style="fill: none; stroke: #d3d3d3"/>
   </g>
   <g id="line2d_69">
    <path d="M 243.405182 217.028092 
L 253.00342 217.028092 
" clip-path="url(#p0bbb4e0af6)" style="fill: none; stroke: #d3d3d3"/>
   </g>
   <g id="line2d_70">
    <path d="M 339.387557 221.127681 
L 348.985794 221.127681 
" clip-path="url(#p0bbb4e0af6)" style="fill: none; stroke: #d3d3d3"/>
   </g>
   <g id="line2d_71">
    <path d="M 435.369932 212.56345 
L 444.968169 212.56345 
" clip-path="url(#p0bbb4e0af6)" style="fill: none; stroke: #d3d3d3"/>
   </g>
   <g id="line2d_72">
    <path d="M 531.352306 233.765849 
L 540.950544 233.765849 
" clip-path="url(#p0bbb4e0af6)" style="fill: none; stroke: #d3d3d3"/>
   </g>
   <g id="line2d_73">
    <path d="M 627.334681 265.501618 
L 636.932919 265.501618 
" clip-path="url(#p0bbb4e0af6)" style="fill: none; stroke: #d3d3d3"/>
   </g>
   <g id="line2d_74">
    <path d="M 723.317056 340.248008 
L 732.915293 340.248008 
" clip-path="url(#p0bbb4e0af6)" style="fill: none; stroke: #d3d3d3"/>
   </g>
   <g id="line2d_75">
    <path d="M 819.299431 412.736662 
L 828.897668 412.736662 
" clip-path="url(#p0bbb4e0af6)" style="fill: none; stroke: #d3d3d3"/>
   </g>
   <g id="line2d_76">
    <path d="M 915.281805 352.90887 
L 924.880043 352.90887 
" clip-path="url(#p0bbb4e0af6)" style="fill: none; stroke: #d3d3d3"/>
   </g>
   <g id="line2d_77">
    <path d="M 1011.26418 492.459797 
L 1020.862418 492.459797 
" clip-path="url(#p0bbb4e0af6)" style="fill: none; stroke: #d3d3d3"/>
   </g>
   <g id="patch_70">
    <path d="M 57.199375 598.84 
L 57.199375 7.2 
" style="fill: none; stroke: #000000; stroke-width: 0.8; stroke-linejoin: miter; stroke-linecap: square"/>
   </g>
   <g id="patch_71">
    <path d="M 1091.889375 598.84 
L 1091.889375 7.2 
" style="fill: none; stroke: #000000; stroke-width: 0.8; stroke-linejoin: miter; stroke-linecap: square"/>
   </g>
   <g id="patch_72">
    <path d="M 57.199375 598.84 
L 1091.889375 598.84 
" style="fill: none; stroke: #000000; stroke-width: 0.8; stroke-linejoin: miter; stroke-linecap: square"/>
   </g>
   <g id="patch_73">
    <path d="M 57.199375 7.2 
L 1091.889375 7.2 
" style="fill: none; stroke: #000000; stroke-width: 0.8; stroke-linejoin: miter; stroke-linecap: square"/>
   </g>
  </g>
 </g>
 <defs>
  <clipPath id="p0bbb4e0af6">
   <rect x="57.199375" y="7.2" width="1034.69" height="591.64"/>
  </clipPath>
 </defs>
</svg>
